PathFileType	4	(X/Y/Z)	PS_ngait_og_ss3.trc	
DataRate	CameraRate	NumFrames	NumMarkers	Units	OrigDataRate	OrigDataStartFrame	OrigNumFrames	
120.00	120.00	9	39	mm	120.00	610	130	
Frame#	Time	Sternum			Neck			RShoulder			LShoulder			Xiphoid			Thoracic			RAsis			LAsis			RPsis			LPsis			LThighSuperior			LThighInferior			LThighLateral			LShankSuperior			LShankInferior			LShankLateral			RThighSuperior			RThighInferior			RThighLateral			RShankSuperior			RShankInferior			RHeel			RToe			RMidfootMedial			RMidfootLateral			RHindfoot			RMidfootSuperior			RToeMedial			RToeLateral			LHeel			LToe			LMidfootMedial			LMidfootLateral			LHindfoot			LMidfootSuperior			LToeMedial			LToeLateral			Sacral			RShankLateral			
		X1	Y1	Z1	X2	Y2	Z2	X3	Y3	Z3	X4	Y4	Z4	X5	Y5	Z5	X6	Y6	Z6	X7	Y7	Z7	X8	Y8	Z8	X9	Y9	Z9	X10	Y10	Z10	X11	Y11	Z11	X12	Y12	Z12	X13	Y13	Z13	X14	Y14	Z14	X15	Y15	Z15	X16	Y16	Z16	X17	Y17	Z17	X18	Y18	Z18	X19	Y19	Z19	X20	Y20	Z20	X21	Y21	Z21	X22	Y22	Z22	X23	Y23	Z23	X24	Y24	Z24	X25	Y25	Z25	X26	Y26	Z26	X27	Y27	Z27	X28	Y28	Z28	X29	Y29	Z29	X30	Y30	Z30	X31	Y31	Z31	X32	Y32	Z32	X33	Y33	Z33	X34	Y34	Z34	X35	Y35	Z35	X36	Y36	Z36	X37	Y37	Z37	X38	Y38	Z38	X39	Y39	Z39	

98	0.808	1041.69067	1444.45557	273.25333	878.43298	1540.09009	291.41492	933.50214	1520.62769	446.46771	900.54700	1536.52100	150.54475	1077.75818	1283.64087	272.31561	799.51971	1320.82239	292.29733	1001.66394	1021.50378	409.97000	999.09344	1010.85706	137.49294	809.73602	1038.60645	333.14615	803.34778	1030.56555	230.20926	957.56409	837.37689	81.16268	1020.16748	612.58197	85.62478	1082.56482	726.84985	131.28711	853.50977	447.61841	84.23408	780.98553	305.18408	135.89447	888.19525	338.37955	160.36655	957.94159	820.88776	457.52036	1003.41437	586.64246	423.76340	1067.07947	751.73303	394.90350	987.95630	427.14914	421.21365	982.71423	175.91559	367.65671	898.07074	67.57371	302.01047	1212.85059	50.37590	336.21799	1118.65186	36.10240	277.44659	1107.14832	29.63528	395.11646	1053.86609	30.66462	381.60309	1080.67957	96.90162	327.88898	1162.99243	38.10574	284.74359	1156.70618	35.54494	388.00269	645.70447	279.30972	213.17581	844.45972	53.52057	134.42216	771.49805	102.99156	209.45102	741.75873	106.96680	99.00890	707.81036	144.08273	117.62832	790.58435	165.74272	157.34865	800.39789	74.52254	196.57823	781.04700	82.90448	94.72183	806.54193	1034.58594	281.67770	1046.48999	302.87915	343.91879 
99	0.817	1049.28381	1445.32751	273.89444	886.11365	1541.11108	291.60333	940.90540	1522.16321	447.00595	908.30963	1537.12756	150.99568	1085.11670	1284.45630	273.35364	807.12451	1321.92151	293.23706	1009.02026	1022.49060	411.07394	1006.85919	1012.10071	138.46661	817.19702	1039.66345	334.00528	810.99323	1031.68054	230.95772	966.66907	838.69525	81.82243	1032.94116	615.34271	85.08023	1093.32495	730.34369	130.98131	873.05341	447.34906	84.66388	799.36658	303.65442	136.08185	906.15875	338.20517	160.29379	963.55640	821.58441	458.36563	1006.34973	586.85815	424.04370	1071.97656	751.15143	395.78400	990.33282	427.63315	421.16806	983.16364	176.08066	367.75247	898.17902	67.18203	301.62982	1212.84326	50.06280	336.12622	1118.69250	35.91205	277.53055	1107.15369	29.62251	395.10980	1054.44910	30.91103	381.90338	1080.75916	96.84200	327.83786	1162.91821	37.81809	284.71060	1156.71179	35.42005	387.97842	663.92450	275.42267	213.09358	868.39551	53.52494	135.84456	793.99286	101.56904	210.44510	764.63171	104.75979	99.72825	730.03674	141.04391	118.48927	811.61938	164.65685	158.00957	823.58374	73.68591	197.74239	804.56982	81.47996	95.77591	814.09509	1035.67200	282.48151	1047.72229	303.04318	344.29080 
100	0.825	1056.86731	1446.11548	274.42169	893.66919	1541.99524	292.10254	948.23566	1523.59521	447.49133	916.11829	1537.65979	151.31725	1092.52295	1285.18591	274.30383	814.64142	1322.94519	294.16919	1016.47095	1023.63916	411.81769	1014.35455	1012.95721	139.38635	824.65741	1040.89050	334.74365	818.42395	1032.89929	231.66118	975.52856	839.79700	82.36556	1045.43689	617.99011	84.78609	1104.01709	733.72614	130.82079	893.37030	446.54565	85.30834	818.05884	301.33173	136.11157	924.43323	337.23773	160.06335	969.18445	822.31854	459.12512	1009.28400	587.12604	424.30313	1076.73767	750.63538	396.32932	992.07892	427.84100	421.21759	983.61896	176.29970	367.85129	898.17743	67.11688	301.46329	1212.84851	49.80484	335.95752	1118.64551	35.77231	277.26471	1107.13464	29.58780	395.10651	1053.96606	30.64793	381.65768	1080.85229	96.81035	327.54993	1162.93701	37.61535	284.51566	1156.65613	35.29315	387.78073	683.01062	270.06583	213.04417	892.94592	53.58385	137.50064	817.15533	99.77689	211.34970	788.52899	101.81218	100.83786	752.98438	137.01259	119.09420	833.42773	163.03674	158.88516	847.30231	72.76369	199.10176	828.63306	79.76385	97.01407	821.54065	1036.89490	283.20242	1049.15894	303.34167	344.29248 
101	0.833	1064.43738	1446.86804	275.08148	901.28308	1542.84631	292.36151	955.63544	1524.93164	448.03128	923.93170	1538.20972	151.74712	1099.98364	1285.94580	275.22977	822.29907	1323.96960	294.83334	1023.72266	1024.31335	413.01749	1022.05267	1014.08728	140.39963	832.07080	1041.83191	335.59570	826.00873	1033.81116	232.48497	984.22888	841.20697	82.86710	1057.73779	620.59082	84.64441	1114.33228	736.99860	130.64032	914.29266	445.47168	86.04688	837.06763	298.63080	136.25859	951.43457	340.50455	162.30511	974.82111	823.06537	459.79102	1012.18939	587.34119	424.46265	1081.48169	749.92834	396.81274	992.84723	427.79974	421.56082	984.12988	176.51523	367.94952	898.06793	66.97459	301.21423	1212.90088	49.58372	335.86600	1118.62842	35.71047	277.02365	1107.18091	29.55536	395.07404	1054.46545	30.85735	381.80789	1080.99585	96.82384	327.34311	1163.01514	37.48874	284.37695	1156.63550	35.16538	387.63593	702.53711	263.56848	212.33028	918.66260	53.35251	139.13983	840.93933	97.64405	212.53467	813.35431	98.25721	101.85334	776.22955	132.68382	119.44808	855.84174	161.14616	159.85480	872.10803	71.39222	200.40273	853.85034	77.48939	98.18275	829.03973	1037.82153	284.04034	1050.10010	302.89365	344.64935 
102	0.842	1072.02600	1447.59985	275.80005	908.89081	1543.80505	292.76459	963.02948	1526.22888	448.60849	931.73749	1538.79858	152.21281	1107.44141	1286.60583	276.35245	829.76556	1324.97375	295.58133	1031.09106	1025.00452	413.86224	1029.67957	1015.45459	141.20067	839.50531	1042.76868	336.33221	833.52441	1034.79578	233.13364	992.63751	842.70734	83.04448	1069.67798	623.16791	84.57278	1124.50732	740.29565	130.51158	935.93933	444.01639	86.61839	856.27557	295.34714	136.49205	970.19312	340.60876	162.42369	980.45801	823.79706	460.35687	1015.05646	587.55420	424.64050	1086.17078	749.43201	397.34277	994.46228	428.03476	421.62079	984.48145	176.68658	368.00989	898.10693	66.90874	301.07272	1212.92041	49.46116	335.78821	1118.67407	35.64573	277.00842	1107.10999	29.42090	394.98077	1054.67017	30.99861	381.87241	1081.02515	96.74099	327.33481	1163.01184	37.40113	284.31308	1156.67065	35.03688	387.57349	721.89758	257.16925	212.40239	945.76031	53.67762	141.47018	865.45007	95.24080	214.00456	838.52948	94.36410	102.81297	800.64966	127.76247	120.32423	878.97986	158.87430	160.65742	897.91284	70.12837	202.18178	880.44165	74.99194	99.75842	836.51489	1038.78223	284.73291	1050.78564	302.61853	344.60611 
103	0.850	1079.49731	1448.28589	276.73312	916.52350	1544.75085	293.07129	970.46918	1527.38403	449.19504	939.55646	1539.46387	152.74721	1114.78125	1287.28979	277.21765	837.28931	1325.92432	296.34335	1038.38574	1026.11755	414.50946	1037.04834	1016.02753	142.07109	846.81793	1043.79797	336.92163	840.86176	1035.98132	233.79935	1000.79095	843.92163	83.96687	1081.26196	625.71466	84.73362	1134.61499	743.61108	130.85089	958.06012	442.23004	87.84516	875.63165	291.71091	136.55016	981.89020	338.26584	162.70290	986.08459	824.48596	460.81897	1017.94537	587.70520	424.74722	1090.98169	748.79620	397.67831	996.19330	428.29221	421.66919	984.93304	176.89034	368.10846	898.25909	66.85371	301.00287	1212.96216	49.32911	335.83887	1118.64380	35.63140	277.11035	1107.04199	29.43352	395.03583	1054.62988	31.06494	381.84033	1081.12842	96.79304	327.45676	1163.00476	37.32824	284.39728	1156.72424	34.99546	387.66214	742.11554	248.99785	211.37822	972.89301	53.26584	143.57025	890.07587	92.70228	215.06783	864.62769	90.23533	103.97623	825.54620	121.91454	121.17284	902.59235	156.27132	162.11531	923.77313	68.49070	203.58144	907.41901	72.10757	100.92228	843.83984	1039.88965	285.36047	1051.39282	302.51376	344.46487 
104	0.858	1086.76782	1448.85840	277.81232	924.21521	1545.56775	293.54575	977.82385	1528.33630	449.82468	947.40350	1540.12878	153.30113	1122.38501	1288.02942	278.39325	844.71399	1326.81702	297.08508	1045.35767	1026.35864	415.58154	1044.65759	1017.53229	142.97215	854.02838	1044.72913	337.55911	848.29218	1037.00696	234.42726	1009.77240	845.56464	82.89111	1092.61890	628.03217	85.15858	1144.12524	746.68750	130.94223	980.15796	440.52029	88.30596	895.33252	287.63785	136.85022	998.36719	336.42636	162.59932	991.68921	825.10779	461.17731	1020.71973	587.86414	424.89868	1095.69592	748.17151	398.07300	997.70886	428.48782	421.75815	985.30164	177.07672	368.24365	898.27521	66.93268	301.08472	1212.93762	49.33191	335.84494	1118.65930	35.62948	277.20328	1107.06934	29.36847	395.05490	1053.94080	30.61901	381.65491	1081.07922	96.74342	327.55579	1162.95715	37.33235	284.42542	1156.73413	34.95161	387.69266	762.51105	240.96078	211.13747	999.96130	52.21870	145.25107	915.99738	89.72454	216.42673	891.46075	86.76372	104.84702	850.71289	116.15150	121.78116	926.18146	153.74495	162.80724	950.24988	66.26927	205.06126	934.29425	69.73074	102.33408	851.16028	1040.86804	285.99319	1052.33997	302.35556	344.48706 
105	0.867	1093.97742	1449.32458	278.92752	931.98920	1546.44763	294.09818	985.26892	1529.11926	450.45941	955.27710	1540.71606	153.88713	1129.99182	1288.77124	279.52313	852.21997	1327.62842	297.72647	1052.51807	1027.17395	416.35556	1052.17664	1018.01514	143.86411	861.27924	1045.39368	338.08112	855.70441	1037.74622	235.03082	1018.53027	847.54138	82.21759	1103.61475	630.44092	85.62035	1153.84045	749.77155	131.62430	1002.76312	438.26126	88.99926	915.99976	282.59824	137.85017	1016.75903	335.15009	163.21442	997.26044	825.64447	461.43668	1023.34351	587.97327	424.96133	1100.33069	747.93939	398.66684	999.13928	428.65070	421.66705	985.62164	177.14539	368.28326	897.89362	68.09499	302.15796	1213.13928	49.40662	336.02441	1118.90552	35.32078	277.50562	1107.06018	29.30902	395.02609	1054.52637	30.82954	381.82846	1081.16089	96.47424	327.68445	1163.15759	37.14441	284.66806	1157.00183	35.03197	387.94516	783.24213	232.74902	211.32251	1027.49023	51.12840	146.85892	941.97961	86.52171	217.23024	918.48499	82.36844	105.64487	876.22522	110.45700	122.21074	950.27826	150.66931	163.73164	976.95197	64.01130	206.23753	961.67499	66.57922	103.38103	858.49182	1041.56995	286.55597	1053.42566	302.23434	344.68652 
106	0.875	1101.65833	1449.91931	279.80725	939.71149	1547.19604	294.65631	992.74744	1529.81567	451.09641	963.14636	1541.34680	154.50320	1137.68396	1289.58044	280.60706	859.74335	1328.39111	298.33124	1059.63464	1027.92285	417.03171	1059.65833	1018.85565	144.58150	868.48566	1046.10352	338.53183	863.06775	1038.56580	235.49609	1026.62952	848.73364	83.72527	1114.38391	632.66248	86.17132	1163.25012	752.59674	132.27272	1025.73120	435.93137	89.49014	936.50452	277.68546	138.45737	1035.00244	334.16620	164.04242	1002.78876	826.08765	461.60770	1025.82813	587.99792	424.85349	1105.02136	747.77130	398.96539	1000.49231	428.75131	421.57785	985.92163	177.21594	368.21573	897.88409	68.55775	302.51779	1213.06104	49.41043	335.98779	1118.71521	35.66501	277.26547	1107.10266	29.34217	395.06848	1054.00378	30.60758	381.62109	1081.17517	96.74474	327.69400	1163.09851	37.40453	284.55231	1156.85571	34.97095	387.81714	805.15192	223.18782	211.05148	1055.27405	50.28919	147.75426	969.77167	83.36533	218.45906	945.60376	78.14381	106.16179	902.81659	104.76756	122.72764	974.73792	147.52278	164.45364	1004.89630	61.93341	207.52382	988.70074	63.81826	104.79314	865.77673	1042.33472	287.01398	1054.39905	302.26010	344.89294 
